<?xml version="1.0" encoding="utf-8"?>
<!-- Generator: Adobe Illustrator 28.3.0, SVG Export Plug-In . SVG Version: 6.00 Build 0)  -->
<svg version="1.1" id="Capa_1" xmlns="http://www.w3.org/2000/svg" xmlns:xlink="http://www.w3.org/1999/xlink" x="0px" y="0px"
	 viewBox="0 0 160 19" style="enable-background:new 0 0 160 19;" xml:space="preserve">
<style type="text/css">
	.st0{fill-rule:evenodd;clip-rule:evenodd;fill:#D81E05;}
	.st1{fill:#D81E05;}
</style>
<g>
	<path class="st0" d="M18.9,6.4c0.2,0.1,0.3,0.3,0.3,0.5c0,0.1,0,0.2-0.1,0.3l-1.7,3c0,0.1-0.1,0.1-0.2,0.1c-0.1,0-0.2-0.1-0.2-0.1
		l-1.7-3c-0.1-0.1-0.1-0.2-0.1-0.3c0-0.2,0.1-0.4,0.3-0.5c0.6-0.2,1.2-0.3,1.8-0.3C17.8,6.1,18.3,6.2,18.9,6.4L18.9,6.4z M13.8,7.4
		c0.1-0.1,0.3-0.1,0.5,0c0.1,0,0.1,0.1,0.2,0.2l1.4,2.4c0,0.1,0,0.1,0,0.2c0,0.1-0.1,0.1-0.2,0.1l-2.8,0c-0.1,0-0.2,0-0.2-0.1
		c-0.1-0.1-0.2-0.2-0.2-0.4c0.1-0.5,0.2-0.9,0.5-1.4C13.1,8.1,13.4,7.7,13.8,7.4L13.8,7.4z M20.5,7.4c-0.1-0.1-0.3-0.1-0.5,0
		c-0.1,0-0.1,0.1-0.2,0.2L18.5,10c0,0.1-0.1,0.1,0,0.2c0,0.1,0.1,0.1,0.2,0.1l2.8,0c0.1,0,0.2,0,0.2-0.1c0.1-0.1,0.2-0.2,0.2-0.4
		c-0.1-0.5-0.2-0.9-0.5-1.4C21.2,8.1,20.8,7.7,20.5,7.4L20.5,7.4z M17.6,11.2v2.6h-0.8v-2.6c-0.4,0-0.9,0-1.1,0l-2.7,0
		c-0.2,0-0.5,0-0.7-0.2c-0.4-0.2-0.6-0.7-0.6-1.1c0-0.1,0-0.1,0-0.2c0.1-0.5,0.3-1.1,0.6-1.6c0.3-0.5,0.7-0.9,1.1-1.3
		c0.3-0.2,0.7-0.3,1.1-0.3c0.1-0.4,0.4-0.6,0.7-0.8c0.1,0,0.1-0.1,0.2-0.1c0.6-0.2,1.3-0.3,2-0.3c0.7,0,1.4,0.1,2,0.4
		c0.4,0.2,0.7,0.5,0.8,0.9c0.4-0.1,0.7,0,1,0.2c0.4,0.4,0.9,0.8,1.2,1.3c0.3,0.5,0.5,1,0.6,1.6c0,0,0,0.1,0,0.2
		c0,0.4-0.2,0.9-0.6,1.1c-0.2,0.1-0.4,0.2-0.7,0.2l-2.7,0C18.5,11.2,18,11.2,17.6,11.2z M17.1,1.9c-4.2,0-7.6,3.4-7.6,7.6
		c0,4.2,3.4,7.6,7.6,7.6c4.2,0,7.6-3.4,7.6-7.6C24.8,5.3,21.4,1.9,17.1,1.9z M17.1,1.1c4.7,0,8.4,3.8,8.4,8.4c0,4.7-3.8,8.4-8.4,8.4
		c-4.7,0-8.4-3.8-8.4-8.4C8.7,4.9,12.5,1.1,17.1,1.1z"/>
	<polygon class="st1" points="38.9,1 43.1,9.5 47.2,1 53.4,1 53.4,18 47.2,18 47.2,9.5 43.1,18 38.9,9.5 38.9,18 32.7,18 32.7,1 	
		"/>
	<path class="st1" d="M65.8,3.6l-2.5,8.8h5.1L65.8,3.6z M55.4,18L60.3,1h11L76.2,18h-6.2l-0.8-2.8h-6.7L61.7,18H55.4z"/>
	<path class="st0" d="M85.9,3c1.4,0,2.8,0.8,2.8,2.3c0,1.5-1.2,2.8-2.8,2.8h-1.4V3H85.9z M89.9,1.1c2.7,0,4.9,2.2,4.9,4.9
		c0,2.7-2.2,4.9-4.9,4.9h-5.4v7h-6.2V1.1H89.9z"/>
	<polygon class="st1" points="96.9,1 113.5,1 113.5,3.8 103.2,3.8 103.2,8.1 113.5,8.1 113.5,10.9 103.2,10.9 103.2,18 96.9,18 	"/>
	<polygon class="st1" points="140.9,15.2 151.3,15.2 151.3,18 134.7,18 134.7,1 151.3,1 151.3,3.8 140.9,3.8 140.9,8.1 151.3,8.1 
		151.3,10.9 140.9,10.9 	"/>
	<path class="st0" d="M123.4,3c1.4,0,2.8,0.8,2.8,2.3c0,1.5-1.2,2.8-2.8,2.8h-1.3V3H123.4z M132.3,13.6v0.1
		C132.3,13.7,132.3,13.6,132.3,13.6z M132.3,13.7V18h-4.2h-1.9v-4.1c0,0,0-0.1,0-0.1c0-1.5-1.2-2.8-2.8-2.8h-1.3v7h-6.4V9.5V1.1h6.9
		h5.4c2.3,0,4.2,1.9,4.2,4.2c0,2.3-1.9,4.2-4.2,4.2c2.3,0,4.2,1.8,4.2,4.1C132.3,13.6,132.3,13.7,132.3,13.7z"/>
</g>
</svg>
