<?xml version="1.0" encoding="UTF-8"?>
<svg width="162px" height="33px" viewBox="0 0 162 33" version="1.1" xmlns="http://www.w3.org/2000/svg" xmlns:xlink="http://www.w3.org/1999/xlink">
    <title>3F980E76-3A02-495C-8DD4-AEEFFF9BF634</title>
    <g id="ITERACIÓN-&quot;PERSONAS-+-ILUSTRACIÓN&quot;" stroke="none" stroke-width="1" fill="none" fill-rule="evenodd">
        <g id="ITE-PI---Home-general---01" transform="translate(-639.000000, -76.000000)">
            <g id="nueva-cabecera/franja-Grupo-Mutua" transform="translate(0.000000, 60.000000)">
                <g id="logo/logo_GM_todo_color_bg_blanco" transform="translate(639.000000, 16.000000)">
                    <path d="M119.558521,11.7445069 L119.558521,23.5805069 C119.558521,24.8376498 120.056498,25.5793641 121.06821,25.5793641 C122.079922,25.5793641 122.577899,24.8376498 122.577899,23.5805069 L122.577899,23.5805069 L122.577899,11.7445069 L126.36,11.7445069 L126.36,22.4805069 C126.36,25.6233641 125.461751,28.0967927 121.06821,28.0967927 C116.674669,28.0967927 115.77642,25.6233641 115.77642,22.4805069 L115.77642,22.4805069 L115.77642,11.7445069 L119.558521,11.7445069 Z M141.986381,11.7445069 L141.986381,23.5805069 C141.986381,24.8376498 142.484358,25.5793641 143.49607,25.5793641 C144.507782,25.5793641 145.002607,24.8376498 145.002607,23.5805069 L145.002607,23.5805069 L145.002607,11.7445069 L148.784708,11.7445069 L148.791012,22.4805069 C148.791012,25.6233641 147.892763,28.0967927 143.499222,28.0967927 C139.105681,28.0967927 138.20428,25.6233641 138.20428,22.4805069 L138.20428,22.4805069 L138.20428,11.7445069 L141.986381,11.7445069 Z M47.4590661,11.4742212 C50.5225681,11.4742212 51.8967315,13.4730784 52.0763813,16.2356498 L52.0763813,16.2356498 L50.6360311,16.2356498 C50.6360311,14.3059355 49.5770428,12.6873641 47.4590661,12.6873641 C45.1614397,12.6873641 43.765214,14.5730784 43.765214,19.7619355 C43.765214,24.9507927 45.1614397,26.8365069 47.4590661,26.8365069 C49.6211673,26.8365069 50.8156809,24.9067927 50.8156809,21.1542212 L50.8156809,21.1542212 L50.8156809,20.8179355 L47.0083658,20.8179355 L47.0083658,19.6079355 L52.1677821,19.6079355 L52.1677821,27.7793641 L51.0394553,27.7793641 L51.0394553,25.1299355 L50.9953307,25.1299355 C50.5005058,26.9056498 49.0601556,28.0496498 47.4590661,28.0496498 C44.1717899,28.0496498 42.3248638,25.5102212 42.3248638,19.7619355 C42.3248638,14.0136498 44.1717899,11.4742212 47.4590661,11.4742212 Z M66.2655642,11.7445069 L66.2655642,23.2662212 C66.2655642,25.6705069 67.2993385,26.8365069 69.4173152,26.8365069 C71.5352918,26.8365069 72.5690661,25.6705069 72.5690661,23.2662212 L72.5690661,23.2662212 L72.5690661,11.7445069 L74.0125681,11.7445069 L74.0125681,23.2882212 C74.0125681,26.6573641 72.3673541,28.0496498 69.4173152,28.0496498 C66.4672763,28.0496498 64.8220623,26.6573641 64.8220623,23.2882212 L64.8220623,23.2882212 L64.825214,11.7445069 L66.2655642,11.7445069 Z M91.2179767,11.4742212 C94.5052529,11.4742212 96.352179,14.0105069 96.352179,19.7619355 C96.352179,25.5133641 94.5084047,28.0496498 91.2179767,28.0496498 C87.9275486,28.0496498 86.0806226,25.5133641 86.0806226,19.7619355 C86.0806226,14.0293641 87.9307004,11.4742212 91.2179767,11.4742212 Z M104.565642,11.7445069 L106.548093,22.2793641 L106.592218,22.2793641 L108.505331,11.7445069 L113.979922,11.7445069 L113.979922,27.7793641 L110.46572,27.7793641 L110.46572,15.2927927 L110.421595,15.2927927 L107.966381,27.7793641 L105.038405,27.7793641 L102.447665,15.2927927 L102.403541,15.2927927 L102.403541,27.7793641 L99.0248638,27.7793641 L99.0248638,11.7445069 L104.565642,11.7445069 Z M137.548716,11.7445069 L137.548716,14.7993641 L134.170039,14.7993641 L134.170039,27.7793641 L130.384786,27.7793641 L130.384786,14.7993641 L127.006109,14.7993641 L127.006109,11.7445069 L137.548716,11.7445069 Z M157.902724,11.7445069 L161.908599,27.7667927 L157.990973,27.7667927 L157.404747,24.7150784 L153.553307,24.7150784 L152.995447,27.7793641 L149.077821,27.7793641 L153.175097,11.7445069 L157.902724,11.7445069 Z M58.8967704,11.7445069 C61.5789105,11.7445069 63.0633852,13.2719355 63.0633852,15.7642212 C63.0633852,17.6970784 62.2975097,19.4256498 60.1574708,19.8310784 L60.1574708,19.8310784 L60.1574708,19.8750784 C62.1619844,20.0542212 62.8396109,21.1982212 62.9057977,23.6716498 L62.9057977,23.6716498 L62.9530739,25.4222212 C62.9751362,26.2990784 63.0633852,27.1507927 63.6275486,27.7793641 L63.6275486,27.7793641 L61.9382101,27.7793641 C61.6009728,27.2199355 61.5316342,26.3870784 61.509572,25.5353641 L61.509572,25.5353641 L61.4654475,24.1870784 C61.3740467,21.3585069 60.8571595,20.4596498 58.2664202,20.4596498 L58.2664202,20.4596498 L55.5401556,20.4596498 L55.5401556,27.7793641 L54.0998054,27.7793641 L54.0998054,11.7445069 Z M80.2089105,11.7445069 C83.3133852,11.7445069 84.6213619,13.5642212 84.6213619,16.2796498 C84.6213619,18.7530784 83.3827237,20.8179355 79.7109339,20.8179355 L79.7109339,20.8179355 L77.2998444,20.8179355 L77.2998444,27.7793641 L75.8594942,27.7793641 L75.8594942,11.7445069 Z M91.2179767,12.6873641 C88.9203502,12.6873641 87.5241245,14.5730784 87.5241245,19.7619355 C87.5241245,24.9507927 88.9235019,26.8365069 91.2179767,26.8365069 C93.5124514,26.8365069 94.9118288,24.9507927 94.9118288,19.7619355 C94.9118288,14.5730784 93.5156031,12.6873641 91.2179767,12.6873641 Z M155.46642,14.6579355 L155.422296,14.6579355 L154.092257,21.8079355 L156.840584,21.8079355 L155.46642,14.6579355 Z M79.7550584,12.9576498 L77.2998444,12.9576498 L77.2998444,19.6047927 L79.7550584,19.6047927 C81.671323,19.6047927 83.1810117,18.7530784 83.1810117,16.2796498 C83.1810117,13.8785069 81.961284,12.9576498 79.7550584,12.9576498 L79.7550584,12.9576498 Z M58.1781712,12.9576498 L55.5401556,12.9576498 L55.5401556,19.2433641 L58.0174319,19.2433641 C60.2929961,19.2433641 61.623035,18.2125069 61.623035,16.1005069 C61.623035,14.1487927 60.7909728,12.9576498 58.1781712,12.9576498 L58.1781712,12.9576498 Z" id="Combined-Shape" fill="#003893"></path>
                    <path d="M5.93159533,13.0299355 C5.85890483,8.39923179 8.29472269,4.08892658 12.3047008,1.75239711 C16.3146788,-0.584132369 21.276255,-0.584132369 25.2862331,1.75239711 C29.2962112,4.08892658 31.732029,8.39923179 31.6593385,13.0299355 L31.6593385,32.9116498 L5.93159533,32.9116498 L5.93159533,13.0299355 Z" id="Path" fill="#00A5D1"></path>
                    <path d="M16.2,25.0293641 L16.2,17.4865069 C15.3994553,20.1139355 14.5358755,22.7382212 13.656537,25.3436498 L15.7587549,25.3436498 C16.07393,25.3436498 16.2,25.2650784 16.2,25.0293641 Z M21.0757588,25.3436498 L23.0298444,25.3436498 L20.6534241,18.0522212 L20.6534241,24.8816498 C20.6534241,25.1927927 20.8015564,25.3436498 21.0757588,25.3436498 Z M30.5719844,25.0293641 L30.5719844,17.4865069 C29.7714397,20.1202212 28.9015564,22.7382212 28.0222179,25.3436498 L30.1622568,25.3436498 C30.4459144,25.3436498 30.5719844,25.2556498 30.5719844,25.0293641 Z M6.72583658,25.3436498 L8.64525292,25.3436498 L6.26883268,18.0647927 L6.26883268,25.0293641 C6.27198444,25.3436498 6.6407393,25.3436498 6.72583658,25.3436498 Z M13.5210117,25.7239355 C13.2163424,26.6269831 12.9116732,27.5289831 12.6070039,28.4299355 L9.66011673,28.4299355 L8.87848249,26.0319355 L8.87848249,28.4299355 L0,28.4299355 L0,25.3593641 L2.07070039,25.3593641 C2.37011673,25.3593641 2.47412451,25.2650784 2.47412451,25.0450784 L2.47412451,14.5039355 C2.47412451,14.2776498 2.37642023,14.1896498 2.07385214,14.1896498 L0,14.1896498 L0,11.1127927 L8.73350195,11.1127927 L11.6866926,20.5633641 C12.4178988,17.9170784 14.8132296,11.1127927 14.8132296,11.1127927 L23.1180934,11.1127927 L26.071284,20.5633641 C26.8024903,17.9170784 29.197821,11.1127927 29.197821,11.1127927 L37.6224514,11.1127927 L37.6224514,14.1833641 L35.4540467,14.1833641 C35.1388716,14.1833641 35.0537743,14.2776498 35.0537743,14.4976498 L35.0537743,24.8910784 C35.0537743,25.2053641 35.1987549,25.3593641 35.4729572,25.3593641 L37.6256031,25.3593641 L37.6256031,28.4299355 L27.9182101,28.4299355 L27.9182101,25.6736498 C27.6093385,26.5955546 27.2941634,27.5143165 26.9726848,28.4299355 L24.0447082,28.4299355 L23.2221012,25.9533641 L23.2221012,28.4236498 L13.5210117,28.4236498 L13.5210117,25.7239355 Z" id="Shape" fill="#FFFFFF"></path>
                    <path d="M5.62587549,14.1645069 L5.62587549,25.1645069 C5.62587549,25.7459355 6.20894942,25.9879355 6.71638132,25.9879355 L8.22291829,25.9879355 L8.22291829,27.7762212 L0.630350195,27.7762212 L0.630350195,25.9910784 L2.06124514,25.9910784 C2.83657588,25.9910784 3.10447471,25.7490784 3.10447471,25.1676498 L3.10447471,14.3436498 C3.10447471,13.7653641 2.71365759,13.5233641 2.15894942,13.5233641 L0.630350195,13.5233641 L0.630350195,11.7319355 L8.24498054,11.7319355 L11.5196498,22.2196498 L11.5700778,22.2196498 L15.2544747,11.7445069 L22.629572,11.7445069 L25.9042412,22.2196498 L25.9515175,22.2196498 L29.6264591,11.7445069 L36.9511284,11.7445069 L36.9511284,13.5359355 L35.3248249,13.5359355 C34.766965,13.5359355 34.3792996,13.7779355 34.3792996,14.3562212 L34.3792996,24.8313641 C34.3792996,25.6045069 34.7449027,25.9910784 35.4225292,25.9910784 L36.9511284,25.9910784 L36.9511284,27.7793641 L28.5485603,27.7793641 L28.5485603,25.9910784 L30.1464981,25.9910784 C30.8020623,25.9910784 31.2023346,25.6579355 31.2023346,25.1676498 L31.2023346,14.1676498 L31.1550584,14.1676498 L26.5093774,27.7793641 L24.4954086,27.7793641 L20.0577432,14.1645069 L20.0104669,14.1645069 L20.0104669,24.8313641 C20.0104669,25.6045069 20.3729183,25.9910784 21.0536965,25.9910784 L22.579144,25.9910784 L22.579144,27.7793641 L14.1639689,27.7793641 L14.1639689,25.9910784 L15.7587549,25.9910784 C16.4143191,25.9910784 16.8019844,25.6516498 16.8019844,25.1676498 L16.8019844,14.1676498 L16.7515564,14.1676498 L12.124786,27.7793641 L10.1139689,27.7793641 L5.67315175,14.1645069 L5.62587549,14.1645069 Z" id="Path" fill="#003893" fill-rule="nonzero"></path>
                </g>
            </g>
        </g>
    </g>
</svg>