<svg xmlns="http://www.w3.org/2000/svg" width="1440" height="960" viewBox="0 0 1440 960">
  <defs>
    <linearGradient id="bg" x1="0%" y1="100%" x2="100%" y2="0%">
      <stop offset="0%" stop-color="#020617" />
      <stop offset="50%" stop-color="#0f172a" />
      <stop offset="100%" stop-color="#312e81" />
    </linearGradient>
    <radialGradient id="glow" cx="50%" cy="55%" r="60%">
      <stop offset="0%" stop-color="#38bdf8" stop-opacity="0.45" />
      <stop offset="60%" stop-color="#1d4ed8" stop-opacity="0.1" />
      <stop offset="100%" stop-color="#0f172a" stop-opacity="0" />
    </radialGradient>
    <linearGradient id="car-body" x1="0%" y1="50%" x2="100%" y2="50%">
      <stop offset="0%" stop-color="#1d4ed8" />
      <stop offset="40%" stop-color="#2563eb" />
      <stop offset="100%" stop-color="#4f46e5" />
    </linearGradient>
    <linearGradient id="car-glass" x1="0%" y1="0%" x2="0%" y2="100%">
      <stop offset="0%" stop-color="#bfdbfe" />
      <stop offset="100%" stop-color="#1e3a8a" />
    </linearGradient>
    <linearGradient id="grid" x1="0%" y1="0%" x2="0%" y2="100%">
      <stop offset="0%" stop-color="#60a5fa" stop-opacity="0.25" />
      <stop offset="100%" stop-color="#38bdf8" stop-opacity="0" />
    </linearGradient>
  </defs>
  <rect width="1440" height="960" fill="url(#bg)" />
  <rect width="1440" height="960" fill="url(#glow)" />
  <g opacity="0.15" stroke="url(#grid)" stroke-width="1">
    <path d="M0 680 H1440" />
    <path d="M0 720 H1440" />
    <path d="M0 760 H1440" />
    <path d="M0 800 H1440" />
    <path d="M0 840 H1440" />
    <path d="M0 880 H1440" />
    <path d="M240 520 V960" />
    <path d="M480 520 V960" />
    <path d="M720 520 V960" />
    <path d="M960 520 V960" />
    <path d="M1200 520 V960" />
  </g>
  <ellipse cx="720" cy="720" rx="420" ry="110" fill="#020617" opacity="0.8" />
  <g transform="translate(200 360)">
    <path d="M520 40 C650 40 760 96 820 200 L900 360 H120 L200 200 C260 96 370 40 500 40 Z" fill="url(#car-body)" />
    <path d="M240 200 Q520 60 800 200 L840 280 H200 Z" fill="url(#car-glass)" stroke="#93c5fd" stroke-width="6" stroke-linejoin="round" />
    <path d="M180 260 H860" stroke="#bfdbfe" stroke-width="8" stroke-linecap="round" opacity="0.6" />
    <circle cx="260" cy="360" r="78" fill="#0f172a" stroke="#c7d2fe" stroke-width="14" />
    <circle cx="260" cy="360" r="46" fill="#1f2937" />
    <circle cx="780" cy="360" r="78" fill="#0f172a" stroke="#c7d2fe" stroke-width="14" />
    <circle cx="780" cy="360" r="46" fill="#1f2937" />
    <path d="M340 360 H700" stroke="#60a5fa" stroke-width="10" stroke-linecap="round" opacity="0.6" />
    <path d="M480 120 H580" stroke="#bae6fd" stroke-width="12" stroke-linecap="round" opacity="0.8" />
    <path d="M380 130 Q520 90 660 130" stroke="#c7d2fe" stroke-width="8" stroke-linecap="round" opacity="0.4" />
  </g>
  <g opacity="0.6">
    <path d="M280 260 L340 220" stroke="#60a5fa" stroke-width="6" stroke-linecap="round" />
    <path d="M1160 260 L1100 220" stroke="#60a5fa" stroke-width="6" stroke-linecap="round" />
  </g>
</svg>
