<svg xmlns="http://www.w3.org/2000/svg" width="1200" height="800" viewBox="0 0 1200 800">
  <defs>
    <linearGradient id="repair-bg" x1="0%" y1="100%" x2="100%" y2="0%">
      <stop offset="0%" stop-color="#020617" />
      <stop offset="50%" stop-color="#0f172a" />
      <stop offset="100%" stop-color="#059669" />
    </linearGradient>
    <radialGradient id="repair-glow" cx="52%" cy="48%" r="60%">
      <stop offset="0%" stop-color="#34d399" stop-opacity="0.45" />
      <stop offset="70%" stop-color="#047857" stop-opacity="0.1" />
      <stop offset="100%" stop-color="#020617" stop-opacity="0" />
    </radialGradient>
    <linearGradient id="repair-glass" x1="0%" y1="0%" x2="0%" y2="100%">
      <stop offset="0%" stop-color="#ecfdf5" stop-opacity="0.95" />
      <stop offset="100%" stop-color="#6ee7b7" stop-opacity="0.7" />
    </linearGradient>
    <linearGradient id="repair-tool" x1="0%" y1="50%" x2="100%" y2="50%">
      <stop offset="0%" stop-color="#0f172a" />
      <stop offset="100%" stop-color="#1f2937" />
    </linearGradient>
  </defs>
  <rect width="1200" height="800" fill="url(#repair-bg)" />
  <rect width="1200" height="800" fill="url(#repair-glow)" />
  <g opacity="0.2" stroke="#34d399" stroke-width="2">
    <path d="M160 620 H1040" />
    <path d="M160 580 H1040" />
    <path d="M160 540 H1040" />
    <path d="M160 500 H1040" />
    <path d="M360 420 V680" />
    <path d="M600 420 V680" />
    <path d="M840 420 V680" />
  </g>
  <ellipse cx="600" cy="640" rx="360" ry="90" fill="#010b19" opacity="0.85" />
  <g transform="translate(180 220)">
    <path d="M200 260 Q380 60 600 60 Q820 60 1000 260 L1040 340 H160 Z" fill="url(#repair-glass)" stroke="#6ee7b7" stroke-width="10" stroke-linejoin="round" />
    <path d="M240 320 H960" stroke="#bbf7d0" stroke-width="12" stroke-linecap="round" opacity="0.5" />
    <path d="M300 200 Q600 140 900 200" stroke="#a7f3d0" stroke-width="8" stroke-linecap="round" opacity="0.5" />
    <path d="M260 360 Q600 300 940 360" stroke="#bbf7d0" stroke-width="8" stroke-linecap="round" opacity="0.4" />
    <g transform="translate(420 180)">
      <circle cx="180" cy="160" r="90" fill="rgba(15,23,42,0.9)" stroke="#34d399" stroke-width="12" />
      <circle cx="180" cy="160" r="56" fill="#0f172a" stroke="#6ee7b7" stroke-width="8" />
      <path d="M180 100 V220" stroke="#6ee7b7" stroke-width="8" stroke-linecap="round" />
      <path d="M120 160 H240" stroke="#6ee7b7" stroke-width="8" stroke-linecap="round" />
      <path d="M180 120 L220 160 L180 200 L140 160 Z" fill="rgba(110,231,183,0.2)" stroke="#bbf7d0" stroke-width="4" />
      <circle cx="180" cy="160" r="18" fill="#34d399" />
    </g>
    <g transform="translate(280 340)">
      <rect x="0" y="0" width="320" height="60" rx="30" fill="url(#repair-tool)" stroke="#34d399" stroke-width="6" />
      <rect x="320" y="20" width="220" height="40" rx="20" fill="#0f172a" stroke="#34d399" stroke-width="6" />
      <circle cx="360" cy="40" r="18" fill="#34d399" />
      <circle cx="410" cy="40" r="14" fill="#34d399" opacity="0.7" />
    </g>
  </g>
  <g transform="translate(160 160)" fill="#bbf7d0" font-family="'Poppins', sans-serif" font-size="48">
    <text>Reparación parabrisas</text>
    <path d="M0 40 H580" stroke="#34d399" stroke-width="4" />
  </g>
</svg>
