<svg xmlns="http://www.w3.org/2000/svg" width="1200" height="800" viewBox="0 0 1200 800">
  <defs>
    <linearGradient id="tint-bg" x1="0%" y1="100%" x2="100%" y2="0%">
      <stop offset="0%" stop-color="#020617" />
      <stop offset="50%" stop-color="#111827" />
      <stop offset="100%" stop-color="#db2777" />
    </linearGradient>
    <radialGradient id="tint-glow" cx="55%" cy="45%" r="60%">
      <stop offset="0%" stop-color="#f472b6" stop-opacity="0.45" />
      <stop offset="70%" stop-color="#be123c" stop-opacity="0.08" />
      <stop offset="100%" stop-color="#020617" stop-opacity="0" />
    </radialGradient>
    <linearGradient id="tint-body" x1="0%" y1="50%" x2="100%" y2="50%">
      <stop offset="0%" stop-color="#9d174d" />
      <stop offset="50%" stop-color="#db2777" />
      <stop offset="100%" stop-color="#f472b6" />
    </linearGradient>
    <linearGradient id="tint-glass" x1="0%" y1="0%" x2="0%" y2="100%">
      <stop offset="0%" stop-color="#fde7f3" stop-opacity="0.95" />
      <stop offset="100%" stop-color="#f472b6" stop-opacity="0.5" />
    </linearGradient>
  </defs>
  <rect width="1200" height="800" fill="url(#tint-bg)" />
  <rect width="1200" height="800" fill="url(#tint-glow)" />
  <g opacity="0.2" stroke="#f472b6" stroke-width="2">
    <path d="M160 620 H1040" />
    <path d="M160 580 H1040" />
    <path d="M160 540 H1040" />
    <path d="M160 500 H1040" />
    <path d="M360 420 V680" />
    <path d="M600 420 V680" />
    <path d="M840 420 V680" />
  </g>
  <ellipse cx="600" cy="640" rx="360" ry="90" fill="#111827" opacity="0.85" />
  <g transform="translate(180 240)">
    <path d="M160 320 C160 180 320 80 520 80 H760 C940 80 1080 200 1080 320 C1080 440 960 520 800 520 H320 C220 520 160 420 160 320 Z" fill="url(#tint-body)" stroke="#f472b6" stroke-width="12" stroke-linejoin="round" />
    <path d="M220 320 C220 220 340 160 520 160 H760 C900 160 980 220 980 320 C980 420 900 460 760 460 H320 C260 460 220 400 220 320 Z" fill="#1f0a25" stroke="#fbcfe8" stroke-width="8" />
    <path d="M260 320 C260 250 340 210 500 210 H720 C860 210 900 260 900 320 C900 380 860 420 720 420 H320 C280 420 260 360 260 320 Z" fill="url(#tint-glass)" stroke="#f9a8d4" stroke-width="8" />
    <path d="M300 320 C300 280 340 250 480 250 H700 C820 250 820 280 820 320 C820 360 820 390 700 390 H340 C320 390 300 360 300 320 Z" fill="#2d0f36" opacity="0.7" />
    <path d="M340 320 C340 300 360 280 460 280 H660 C740 280 740 300 740 320 C740 340 740 360 660 360 H360 C350 360 340 340 340 320 Z" fill="#431142" opacity="0.6" />
    <g opacity="0.4" stroke="#f9a8d4" stroke-width="6" stroke-linecap="round">
      <path d="M320 260 Q420 220 520 240" />
      <path d="M520 240 Q640 220 760 260" />
      <path d="M360 360 Q520 340 680 360" />
    </g>
  </g>
  <g transform="translate(160 160)" fill="#fbcfe8" font-family="'Poppins', sans-serif" font-size="48">
    <text>Lámina seguridad &amp; tintado</text>
    <path d="M0 40 H680" stroke="#f472b6" stroke-width="4" />
  </g>
</svg>
