<svg xmlns="http://www.w3.org/2000/svg" width="1200" height="800" viewBox="0 0 1200 800">
  <defs>
    <linearGradient id="p4-bg" x1="0%" y1="100%" x2="100%" y2="0%">
      <stop offset="0%" stop-color="#020617" />
      <stop offset="50%" stop-color="#0f172a" />
      <stop offset="100%" stop-color="#f59e0b" />
    </linearGradient>
    <radialGradient id="p4-glow" cx="55%" cy="45%" r="60%">
      <stop offset="0%" stop-color="#fbbf24" stop-opacity="0.45" />
      <stop offset="70%" stop-color="#f97316" stop-opacity="0.08" />
      <stop offset="100%" stop-color="#020617" stop-opacity="0" />
    </radialGradient>
    <linearGradient id="p4-body" x1="0%" y1="50%" x2="100%" y2="50%">
      <stop offset="0%" stop-color="#f97316" />
      <stop offset="50%" stop-color="#fb923c" />
      <stop offset="100%" stop-color="#facc15" />
    </linearGradient>
    <linearGradient id="p4-glass" x1="0%" y1="0%" x2="0%" y2="100%">
      <stop offset="0%" stop-color="#fff7ed" stop-opacity="0.95" />
      <stop offset="100%" stop-color="#fed7aa" stop-opacity="0.7" />
    </linearGradient>
  </defs>
  <rect width="1200" height="800" fill="url(#p4-bg)" />
  <rect width="1200" height="800" fill="url(#p4-glow)" />
  <g opacity="0.2" stroke="#fbbf24" stroke-width="2">
    <path d="M120 620 H1080" />
    <path d="M120 580 H1080" />
    <path d="M120 540 H1080" />
    <path d="M120 500 H1080" />
    <path d="M360 420 V680" />
    <path d="M600 420 V680" />
    <path d="M840 420 V680" />
  </g>
  <ellipse cx="600" cy="640" rx="360" ry="90" fill="#0b1120" opacity="0.8" />
  <g transform="translate(220 200)">
    <rect x="100" y="80" width="560" height="360" rx="180" fill="url(#p4-body)" stroke="#fde68a" stroke-width="12" />
    <rect x="220" y="160" width="320" height="200" rx="80" fill="#0f172a" stroke="#fde68a" stroke-width="10" />
    <rect x="240" y="180" width="280" height="160" rx="70" fill="url(#p4-glass)" stroke="#fef3c7" stroke-width="8" />
    <path d="M260 220 H500" stroke="#fde68a" stroke-width="8" stroke-linecap="round" opacity="0.6" />
    <path d="M260 260 H500" stroke="#fef08a" stroke-width="6" stroke-linecap="round" opacity="0.4" />
    <path d="M260 300 H500" stroke="#fcd34d" stroke-width="6" stroke-linecap="round" opacity="0.3" />
    <path d="M620 200 Q780 220 860 320" stroke="#fbbf24" stroke-width="12" stroke-linecap="round" opacity="0.6" />
    <path d="M620 260 Q760 300 820 380" stroke="#f59e0b" stroke-width="10" stroke-linecap="round" opacity="0.4" />
    <path d="M620 320 Q720 360 760 420" stroke="#fb923c" stroke-width="8" stroke-linecap="round" opacity="0.3" />
  </g>
  <g transform="translate(160 160)" fill="#fef3c7" font-family="'Poppins', sans-serif" font-size="48">
    <text>Panel techo solar</text>
    <path d="M0 40 H460" stroke="#fbbf24" stroke-width="4" />
  </g>
</svg>
